<svg id="Layer_1" data-name="Layer 1" xmlns="http://www.w3.org/2000/svg" viewBox="0 0 274.26 82.26" width="274.26" height="82.26"><defs><style>.cls-1{fill:#161615;}.cls-2{fill:#d6dd3f;}</style></defs><g id="Group_128" data-name="Group 128"><g id="Group_122" data-name="Group 122"><path id="Path_213" data-name="Path 213" class="cls-1" d="M97.94,36.58c-2.59,0-4.36-1.58-4.36-4s1.77-4,4.36-4,4.36,1.62,4.36,4S100.53,36.58,97.94,36.58Zm3.83,26.34H94.11V39.31h7.66Z" transform="translate(-4.25 -1.24)"/><path id="Path_214" data-name="Path 214" class="cls-1" d="M130.12,62.92h-7.67V50.61c0-3.11-.48-5.46-3.64-5.46s-4.21,2.68-4.21,6.08V62.92h-7.66V39.31h7.66l0,3.41h.1a7.66,7.66,0,0,1,6.85-3.84c6.85,0,8.62,4.41,8.62,10.11Z" transform="translate(-4.25 -1.24)"/><path id="Path_215" data-name="Path 215" class="cls-1" d="M149.13,45.15h-5.22v8.48c0,2,.28,2.49.67,2.92a2.16,2.16,0,0,0,1.82.57,7.26,7.26,0,0,0,2.3-.43l.38,6a20.63,20.63,0,0,1-5.46.77c-2.73,0-4.55-.81-5.75-2.2s-1.67-3.35-1.67-7V45.15h-3.35V39.36h3.35V32.94h7.71v6.42h5.22Z" transform="translate(-4.25 -1.24)"/><path id="Path_216" data-name="Path 216" class="cls-1" d="M174.79,53H158c.34,3.4,2.92,4.93,6,4.93a13.28,13.28,0,0,0,7.09-2.25l3,4c-.76.57-3.88,3.83-11.2,3.83s-12.6-4.51-12.6-12.31,5.75-12.26,12.74-12.26,11.83,4.65,11.83,11.54C174.89,51.57,174.79,53,174.79,53Zm-7-4.36A4.76,4.76,0,0,0,163,43.86h-.06A4.81,4.81,0,0,0,158,48.59h9.72Z" transform="translate(-4.25 -1.24)"/><path id="Path_217" data-name="Path 217" class="cls-1" d="M193.94,46.35h-.33a6.19,6.19,0,0,0-2.78-.57,4.46,4.46,0,0,0-3.54,1.72,8.22,8.22,0,0,0-1.2,4.93V62.92h-7.66V39.31h7.66L186,42.66h.1A6.25,6.25,0,0,1,192,38.88a5.58,5.58,0,0,1,2.39.43Z" transform="translate(-4.25 -1.24)"/><path id="Path_218" data-name="Path 218" class="cls-1" d="M216.3,60.62c-.24.19-2.73,2.83-9,2.83-6.46,0-12.45-4.41-12.45-12.26s6.08-12.3,12.55-12.3c6,0,8.76,2.48,8.76,2.48l-1.68,5.8a9.7,9.7,0,0,0-6.08-2.11,5.65,5.65,0,0,0-5.85,5.43c0,.18,0,.37,0,.56,0,3.73,2.35,6.08,5.94,6.08a9.29,9.29,0,0,0,6-2.3Z" transform="translate(-4.25 -1.24)"/><path id="Path_219" data-name="Path 219" class="cls-1" d="M240.48,62.92h-7.32L233,60.43a8.76,8.76,0,0,1-6.75,3c-4.17,0-8.57-2.25-8.57-7.51s4.84-7,9.19-7.24l5.94-.24v-.52c0-2.49-1.78-3.79-4.84-3.79a15.1,15.1,0,0,0-7.23,2.11l-2-5a23.32,23.32,0,0,1,10.11-2.39c4.4,0,6.94,1,8.81,2.73s2.82,4,2.82,8Zm-7.61-10.39-3.79.24c-2.34.09-3.73,1.1-3.73,2.87s1.48,2.92,3.59,2.92a4.7,4.7,0,0,0,3.93-2.16Z" transform="translate(-4.25 -1.24)"/><path id="Path_220" data-name="Path 220" class="cls-1" d="M253.07,62.92h-7.66v-33h7.66Z" transform="translate(-4.25 -1.24)"/><path id="Path_221" data-name="Path 221" class="cls-1" d="M266.14,62.92h-7.66v-33h7.66Z" transform="translate(-4.25 -1.24)"/></g><g id="Group_126" data-name="Group 126"><g id="Group_123" data-name="Group 123"><path id="Path_222" data-name="Path 222" class="cls-2" d="M45.38,60.09a17.73,17.73,0,0,1-.09-35.45h0a3.18,3.18,0,1,1,0,6.35,11.38,11.38,0,0,0,.06,22.75h0A11.38,11.38,0,0,0,56.76,42.31h0a3.17,3.17,0,0,1,3.15-3.2h0a3.18,3.18,0,0,1,3.18,3.16A17.72,17.72,0,0,1,45.48,60.09Z" transform="translate(-4.25 -1.24)"/></g><g id="Group_124" data-name="Group 124"><path id="Path_223" data-name="Path 223" class="cls-2" d="M45.38,71.45A29.11,29.11,0,0,1,16.31,42.52,28.7,28.7,0,0,1,24.84,21.9a29.25,29.25,0,0,1,20.62-8.62h0a3.18,3.18,0,0,1,0,6.36A22.92,22.92,0,0,0,29.33,26.4a22.46,22.46,0,0,0-6.67,16.09,22.75,22.75,0,0,0,22.72,22.6h.13a22.63,22.63,0,0,0,16-6.67,22.38,22.38,0,0,0,6.57-16,3.18,3.18,0,0,1,3.16-3.2h0a3.18,3.18,0,0,1,3.18,3.16A28.65,28.65,0,0,1,66.05,62.9a29,29,0,0,1-20.51,8.55Z" transform="translate(-4.25 -1.24)"/></g><g id="Group_125" data-name="Group 125"><path id="Path_224" data-name="Path 224" class="cls-2" d="M45.39,83.5A41.19,41.19,0,0,1,4.25,42.58,40.59,40.59,0,0,1,16.42,13.42,41.61,41.61,0,0,1,45.66,1.24h0a3.18,3.18,0,1,1,0,6.36A35.28,35.28,0,0,0,20.9,17.93,34.24,34.24,0,0,0,10.61,42.55a34.82,34.82,0,0,0,34.78,34.6h.18A34.8,34.8,0,0,0,70.12,67a33.91,33.91,0,0,0,10-24.42,3.18,3.18,0,0,1,3.16-3.19h0a3.18,3.18,0,0,1,3.18,3.16A40.27,40.27,0,0,1,74.61,71.52a41.14,41.14,0,0,1-29,12Z" transform="translate(-4.25 -1.24)"/></g></g><g id="Group_127" data-name="Group 127"><path id="Path_225" data-name="Path 225" class="cls-1" d="M274.7,37.35a3.81,3.81,0,1,1,3.82-3.81,3.76,3.76,0,0,1-3.72,3.81Zm0-7.11a3.31,3.31,0,1,0,3.31,3.3,3.3,3.3,0,0,0-3.31-3.3Zm1.73,5.51h-.83l-1.06-1.83H274v1.83h-.68V31.34h1.52a1.26,1.26,0,0,1,1.37,1.17.34.34,0,0,1,0,.1,1.17,1.17,0,0,1-1,1.22Zm-1.84-3.83H274v1.43h.59c.47,0,.92-.14.92-.72S275.06,31.92,274.59,31.92Z" transform="translate(-4.25 -1.24)"/></g></g></svg>