<svg xmlns="http://www.w3.org/2000/svg" viewBox="0 0 612 158.3" width="612" height="158.3"><style>.st0{fill:#c00d1e}.st1{fill:#005eb8}</style><g id="Layer-1"><path d="M37.4 130.1H.2V28.4h65.7s28.7-1 28.8 27.9c-.2 5.1-.6 11.6-8.1 18.5-1.8 1.3-4.4 3.8-4.4 3.8s4.6.6 8.1 5.9C93.8 89.9 95 96 95 100.8v29.4H55.9l.1-35.7s-1.5-6.5-7.8-6.6c-4.3-.1-10.8-.1-10.8-.1V67.5h11.4s6.6-2.5 6.3-9.4c.1-3.4-.9-7.8-7.4-9.3h-10l-.3 81.3zM187.8 96.1V79.3s-.3-14.8-12.8-23.8c-5.9-2.8-11.4-7.9-32-7.6-20.6.4-27.2 4.1-27.5 4.4-2.1 1.9-15.2 6.8-15.1 38.1.1 7.2 0 21.6 12.3 30.7 8.2 5.1 16.5 8.7 31.9 8.8h42.9l.1-25.5h-44.4s-6.9-1.1-7.1-6.2c-.2-4.6-.1-21.9-.1-21.9s-.3-8.5 7.6-8.4c7.9 0 7.3 10.6 7.3 10.1-1.5.4-15-.1-15-.1v18.2h51.9zM196.8 28.7h38.6V130h-38.6V28.7zM244 48.7l38.6.1.1 81.3H244V48.7zM244 28.6h38.7v15.6H244V28.6zM479.2 29h38.6v101.2h-38.6V29zM292.4 49.2h50.4s31.3-1.4 31.3 29.1v51.6h-61s-23.2 3.6-23.2-24.1c-.1-6.7-.8-25 22.8-25h26v17s-2.3.1-6.2.1c-4.5 0-7.4 3.6-7.3 7.5 0 3 2.4 7.1 8.8 7.1h4.6V80.8s-1.4-7.2-7.5-7.2h-38.8V49.2h.1zM419.7 28.7l.1 75h6s7.6 1.2 7.6-14.6c.5-15.8-9.4-15-9.4-15h-4.4V48.8h27.5s20.4-1.1 22.7 26.6c2.3 27-.9 35.5-.9 35.5s-3.2 19.4-30.8 19.4c-28.6 0-56.8-.1-56.8-.1V28.7h38.4zM611.6 95.9V79.1s-.3-14.8-12.8-23.8c-5.9-2.8-11.4-7.9-32-7.6-20.6.4-27.2 4.1-27.5 4.4-2.1 1.9-15.2 6.8-15.1 38.1.1 7.2 0 21.6 12.3 30.7 8.2 5.1 16.5 8.7 31.9 8.8h42.9v-25.4H567s-6.9-1.1-7.1-6.2c-.2-4.6-.1-21.9-.1-21.9s-.3-8.5 7.6-8.4c7.9 0 7.3 10.6 7.3 10.1-1.5.4-14.9-.1-14.9-.1V96h51.8v-.1zM597.9 40.6h1.3l2.5 4.6h2.8l-2.9-4.8c1.3-.1 2.7-.8 2.7-3.2 0-2.6-1.6-3.4-4.3-3.4h-4.6v11.5h2.5v-4.7zm0-4.7h2.2c1 0 1.5.2 1.5 1.3s-.5 1.3-1.5 1.3h-2.2v-2.6zm-10.2 3.7c0 6.6 5.3 11.9 11.9 11.9 6.6 0 11.9-5.3 11.9-11.9 0-6.6-5.3-11.9-11.9-11.9-6.5 0-11.9 5.3-11.9 11.9zm3.5 0c0-5.2 3.4-8.8 8.4-8.8s8.4 3.6 8.4 8.8c0 5.2-3.4 8.8-8.4 8.8s-8.4-3.6-8.4-8.8z"/><path class="st0" d="M0 134.3h611.7v24H0v-24z"/><path class="st1" d="M.3 0H612v24H.3V0z"/></g></svg>